PathFileType	4	(X/Y/Z)	/Users/itak/Documents/Research/Walk-IL/dataset/trc/00165_00008.trc
DataRate	CameraRate	NumFrames	NumMarkers	Units	OrigDataRate	OrigDataStartFrame	OrigNumFrames
100.000000	100.000000	4	53	mm	100.000000	386	515
Frame#	Time	RPSI			LPSI			L3			STRN			T10			C7			CLAV			RBAK			LBAK			LSHO			LUPA			LAEL			LAOL			LWTS			LWPS			LFRA			LIFD			LHPS			LHTS			RSHO			RUPA			RAEL			RAOL			RWTS			RWPS			RFRA			RIFD			RHTS			RHPS			RBHD			LFHD			RFHD			LBHD			LHIP			RHIP			RASI			LASI			LKNE			LTHI			LANK			LTIP			LTOE			LMT1			LMT5			LHEE			RKNE			RTHI			RANK			RTIP			RTOE			RMT1			RMT5			RHEE			
		X1	Y1	Z1	X2	Y2	Z2	X3	Y3	Z3	X4	Y4	Z4	X5	Y5	Z5	X6	Y6	Z6	X7	Y7	Z7	X8	Y8	Z8	X9	Y9	Z9	X10	Y10	Z10	X11	Y11	Z11	X12	Y12	Z12	X13	Y13	Z13	X14	Y14	Z14	X15	Y15	Z15	X16	Y16	Z16	X17	Y17	Z17	X18	Y18	Z18	X19	Y19	Z19	X20	Y20	Z20	X21	Y21	Z21	X22	Y22	Z22	X23	Y23	Z23	X24	Y24	Z24	X25	Y25	Z25	X26	Y26	Z26	X27	Y27	Z27	X28	Y28	Z28	X29	Y29	Z29	X30	Y30	Z30	X31	Y31	Z31	X32	Y32	Z32	X33	Y33	Z33	X34	Y34	Z34	X35	Y35	Z35	X36	Y36	Z36	X37	Y37	Z37	X38	Y38	Z38	X39	Y39	Z39	X40	Y40	Z40	X41	Y41	Z41	X42	Y42	Z42	X43	Y43	Z43	X44	Y44	Z44	X45	Y45	Z45	X46	Y46	Z46	X47	Y47	Z47	X48	Y48	Z48	X49	Y49	Z49	X50	Y50	Z50	X51	Y51	Z51	X52	Y52	Z52	X53	Y53	Z53	

387	3.86	156.5014801025391	1006.408447265625	64.58313751220703	147.6742858886719	1015.549194335938	-58.22196960449219	149.1425628662109	1051.814453125	5.446763515472412	411.6258850097656	1259.287963867188	1.404078125953674	116.2398223876953	1214.589721679688	-7.708081245422363	188.4716033935547	1483.030395507812	-15.43252849578857	386.5891723632812	1374.570556640625	-5.531729221343994	115.1744155883789	1305.981811523438	88.10325622558594	185.3231811523438	1459.035766601562	-116.7923126220703	265.9674377441406	1447.220458984375	-190.986083984375	250.0336303710938	1319.108032226562	-273.8850708007812	300.1338195800781	1109.489013671875	-311.5934448242188	252.1979675292969	1077.242065429688	-246.4803924560547	461.5000610351562	909.4344482421875	-286.5223693847656	391.6564331054688	872.1084594726562	-336.2211303710938	340.7408447265625	1005.812744140625	-332.3404541015625	528.63720703125	738.1697998046875	-279.6382141113281	431.5319519042969	810.8991088867188	-336.0041198730469	495.8002014160156	842.0701293945312	-313.5744934082031	244.1962432861328	1453.931396484375	167.6347351074219	219.9355316162109	1385.901977539062	233.0633544921875	193.3447723388672	1097.928100585938	283.3278503417969	198.0590057373047	1090.949829101562	185.9585876464844	346.53369140625	880.2041015625	267.3178100585938	272.7229919433594	856.9232177734375	310.0615844726562	220.5570068359375	1025.382568359375	302.0176086425781	377.2166748046875	695.1517944335938	240.6320343017578	379.7411193847656	789.0056762695312	274.7520751953125	306.8908996582031	776.2518920898438	306.2595520019531	255.2477264404297	1641.963256835938	68.97032928466797	418.1536254882812	1684.698974609375	-68.82961273193359	424.2529907226562	1682.720947265625	60.38029479980469	240.0518035888672	1652.084228515625	-67.81609344482422	248.4812164306641	966.5953369140625	-180.7263946533203	314.6453552246094	968.1151733398438	182.6717529296875	390.1987609863281	1003.744384765625	123.8993911743164	374.9691467285156	1003.890991210938	-134.822021484375	219.8452453613281	475.3121948242188	-125.3251647949219	244.4673767089844	617.3872680664062	-160.281982421875	6.519091606140137	53.08499145507812	-92.11151123046875	118.907585144043	263.5641479492188	-118.740966796875	224.0529327392578	38.79795455932617	-78.62722015380859	176.8546142578125	40.16080093383789	-28.02894401550293	110.3647079467773	35.2119255065918	-135.9873657226562	-41.8984489440918	62.78023529052734	-21.77079200744629	517.55322265625	518.3961181640625	161.9686584472656	426.0758972167969	765.8682250976562	189.2044372558594	690.6002807617188	50.96510696411133	158.052978515625	579.7476196289062	422.8431396484375	149.1991882324219	872.1152954101562	169.2785034179688	131.9765167236328	826.9046630859375	144.6917724609375	84.12928771972656	793.6021728515625	92.10646820068359	189.9100952148438	640.2584228515625	37.19742202758789	89.14939117431641	
388	3.87	167.5772094726562	1005.273803710938	66.33721923828125	158.0958557128906	1014.495788574219	-56.41215515136719	159.8671112060547	1050.57861328125	7.196115493774414	422.0013427734375	1258.451538085938	2.17833423614502	126.6070861816406	1213.123779296875	-5.895847320556641	198.2841949462891	1481.727661132812	-13.77740573883057	396.7132263183594	1373.62646484375	-4.54095983505249	125.581298828125	1304.413696289062	89.83377075195312	194.8658294677734	1457.80810546875	-115.1591644287109	275.3069152832031	1446.1455078125	-189.6525421142578	259.2483215332031	1317.901733398438	-272.4495239257812	309.1430969238281	1108.098388671875	-309.7164306640625	261.4758911132812	1075.96240234375	-244.3189392089844	471.1616516113281	908.6126708984375	-284.3854675292969	401.2669982910156	870.8659057617188	-333.7991943359375	349.9314880371094	1004.393005371094	-330.2239685058594	539.1448974609375	737.8778076171875	-277.2450256347656	441.3902282714844	809.78466796875	-333.4361267089844	505.6250305175781	841.3203125	-311.3303527832031	254.5449523925781	1452.536376953125	169.1444549560547	230.4358062744141	1384.41748046875	234.5240173339844	203.4936828613281	1096.49072265625	284.0570068359375	208.4264526367188	1089.573486328125	186.6780548095703	354.8590393066406	877.5050048828125	268.7312622070312	280.7095031738281	854.9978637695312	311.2269897460938	230.1559448242188	1023.886901855469	302.8536682128906	383.8052673339844	692.0776977539062	242.3105163574219	387.1015930175781	785.92138671875	276.3269348144531	314.0881958007812	773.9984130859375	307.6062927246094	264.8059997558594	1640.670043945312	70.66934204101562	427.8011169433594	1683.9833984375	-67.05161285400391	433.830810546875	1681.589233398438	62.19411087036133	249.6141815185547	1651.13134765625	-66.08212280273438	258.5938415527344	965.6679077148438	-179.2922058105469	326.4705505371094	966.8191528320312	183.5733642578125	401.7207336425781	1002.463989257812	124.3652725219727	385.1416015625	1002.81005859375	-134.2666931152344	226.8799591064453	474.8310546875	-125.3230361938477	252.1811828613281	616.8968505859375	-159.7180786132812	7.155419826507568	55.28052520751953	-92.40861511230469	122.8182678222656	264.42138671875	-118.8295135498047	224.0639190673828	38.74650573730469	-78.66452789306641	177.1536254882812	40.2807502746582	-28.17680740356445	110.6562271118164	35.46725463867188	-135.9368133544922	-41.15467071533203	66.17893218994141	-22.11084175109863	528.8488159179688	517.4708862304688	161.8305358886719	437.792724609375	764.667724609375	189.4284362792969	701.3177490234375	49.33722305297852	157.9685821533203	591.048095703125	421.4861755371094	148.9820251464844	882.79248046875	167.3302459716797	129.6517639160156	836.9805908203125	142.7370147705078	82.39359283447266	804.8430786132812	90.15183258056641	188.5657653808594	650.1608276367188	35.650390625	89.52740478515625	
389	3.88	178.8241577148438	1004.291564941406	68.14232635498047	168.7726745605469	1013.554138183594	-54.53298568725586	170.8144836425781	1049.464721679688	8.995894432067871	432.5342102050781	1257.839477539062	3.051202774047852	137.164794921875	1211.743896484375	-3.990056991577148	208.1651153564453	1480.526245117188	-12.01943206787109	406.9421997070312	1372.894409179688	-3.465395450592041	136.1403198242188	1302.947021484375	91.67688751220703	204.4694366455078	1456.685424804688	-113.4149169921875	284.6851501464844	1445.210083007812	-188.2184448242188	268.4629516601562	1316.831298828125	-270.9083557128906	318.012939453125	1106.7978515625	-307.6644592285156	270.6283874511719	1074.841918945312	-241.9236297607422	480.4993591308594	907.7318115234375	-282.1266784667969	410.4932250976562	869.6451416015625	-331.2008666992188	358.8611755371094	1003.029052734375	-327.9222106933594	549.0886840820312	737.380615234375	-274.6416625976562	450.7838134765625	808.6199951171875	-330.6891479492188	515.014892578125	840.4385375976562	-308.9495849609375	264.9903869628906	1451.322265625	170.7411346435547	241.0499420166016	1383.125122070312	236.0811462402344	213.70703125	1095.257690429688	284.8780212402344	218.9098052978516	1088.409423828125	187.4976196289062	363.1935119628906	874.98291015625	270.2622375488281	288.6905822753906	853.2755126953125	312.4846801757812	239.7939910888672	1022.590515136719	303.7844848632812	390.3669128417969	689.1989135742188	244.0675811767578	394.4326477050781	783.0154418945312	278.0104675292969	321.2571716308594	771.9378051757812	309.0314331054688	274.404541015625	1639.525268554688	72.43318939208984	437.416015625	1683.417114257812	-65.23871612548828	443.4072265625	1680.644897460938	64.04086303710938	259.1789855957031	1650.288818359375	-64.28193664550781	269.0029907226562	964.8309326171875	-177.7404022216797	338.4049987792969	965.7393798828125	184.5536193847656	413.3836669921875	1001.421630859375	124.9462127685547	395.5428771972656	1001.853271484375	-133.5962982177734	234.1761169433594	474.4607849121094	-125.3402786254883	260.1489562988281	616.52587890625	-159.1297454833984	7.892655849456787	57.72493743896484	-92.82429504394531	126.9284057617188	265.4720153808594	-118.9941177368164	224.0796813964844	38.69636535644531	-78.68330383300781	177.4696044921875	40.44564437866211	-28.35235595703125	111.0149459838867	35.76115417480469	-135.9516143798828	-40.28168487548828	69.94700622558594	-22.58637428283691	540.3336791992188	516.6136474609375	161.6903076171875	449.8245544433594	763.7781982421875	189.6922454833984	710.0916748046875	47.00887680053711	157.8427581787109	602.2781982421875	419.8016662597656	148.7574462890625	891.979248046875	164.03125	127.7201461791992	845.6369018554688	139.5595245361328	80.91854095458984	814.17333984375	87.15959930419922	187.4014434814453	658.2120971679688	33.62141799926758	89.79381561279297	
390	3.89	190.2638854980469	1003.476989746094	70.01830291748047	179.7175903320312	1012.72998046875	-52.57696151733398	181.9995269775391	1048.471801757812	10.85567474365234	443.2350463867188	1257.447021484375	4.02877950668335	147.9212493896484	1210.441040039062	-1.989775657653809	218.1157073974609	1479.427856445312	-10.1582555770874	417.2763061523438	1372.36962890625	-2.30215048789978	146.8575439453125	1301.574462890625	93.63037109375	214.1370239257812	1455.663452148438	-111.5572967529297	294.1024169921875	1444.40673828125	-186.6841888427734	277.6799011230469	1315.889038085938	-269.2576904296875	326.7489013671875	1105.5849609375	-305.4403686523438	279.6631774902344	1073.878295898438	-239.3016967773438	489.516357421875	906.7850952148438	-279.7584228515625	419.3506469726562	868.4443969726562	-328.4373474121094	367.5380554199219	1001.721801757812	-325.4453125	558.47021484375	736.6710815429688	-271.8563842773438	459.7244567871094	807.4056396484375	-327.779052734375	523.9865112304688	839.428955078125	-306.4482727050781	275.5312805175781	1450.2802734375	172.4259643554688	251.7758941650391	1382.01611328125	237.7361907958984	223.9936065673828	1094.219360351562	285.8099975585938	229.5038452148438	1087.448608398438	188.4330291748047	371.5641479492188	872.6427612304688	271.9030456542969	296.6985778808594	851.7547607421875	313.8442993164062	249.4883270263672	1021.487487792969	304.8239135742188	396.9150695800781	686.5206909179688	245.8857727050781	401.7682495117188	780.2954711914062	279.7852172851562	328.4218444824219	770.0697021484375	310.5365600585938	284.0431823730469	1638.5234375	74.2615966796875	446.9949951171875	1683.0029296875	-63.39530944824219	452.9890441894531	1679.898071289062	65.91166687011719	268.7470703125	1649.5556640625	-62.41513442993164	279.7262573242188	964.0946655273438	-176.0669555664062	350.4718627929688	964.854248046875	185.6182098388672	425.2099914550781	1000.600830078125	125.6494674682617	406.190185546875	1001.027709960938	-132.8069152832031	241.7281799316406	474.2052917480469	-125.3807830810547	268.4213256835938	616.2744140625	-158.5471954345703	8.746634483337402	60.42637634277344	-93.31407928466797	131.2379608154297	266.7272644042969	-119.2229385375977	224.1029815673828	38.64850234985352	-78.68565368652344	177.8096923828125	40.64907836914062	-28.54287528991699	111.4511642456055	36.11193084716797	-136.0179748535156	-39.24869155883789	74.09571838378906	-23.14070892333984	551.953369140625	515.7855224609375	161.5421295166016	462.1288757324219	763.1292724609375	189.9983215332031	717.0814819335938	44.13619995117188	157.6935119628906	613.4185180664062	417.8280334472656	148.4918365478516	899.8435668945312	159.4743957519531	126.2071075439453	853.0528564453125	135.2510528564453	79.72481536865234	821.7469482421875	83.26571655273438	186.4390258789062	664.5706176757812	31.28170967102051	89.95782470703125	
